# Blender 4.0.2
# www.blender.org
mtllib chiyo.mtl
o chiyo
v -5.086302 68.098190 -17.834854
v 5.963698 68.098190 -17.534853
v -5.036302 77.698196 -16.934853
v 5.863698 77.698196 -16.634853
v -3.836302 60.148193 -13.234852
v 4.463698 60.148193 -12.934853
v -11.286302 67.998192 -12.434853
v -12.536302 76.398193 -10.634853
v 11.813699 68.048195 -11.734852
v 0.163698 34.398193 -8.234850
v -10.386302 81.398193 -9.634853
v -4.586302 84.698196 -9.134854
v 12.913698 76.448196 -9.734853
v -8.086302 60.098190 -9.434853
v 0.163698 34.348194 -5.934850
v 4.863698 84.698196 -8.834854
v 10.713698 81.398193 -8.934854
v -3.636302 57.148193 -7.834852
v 3.863698 57.198193 -7.634851
v 8.413699 60.098190 -8.934853
v 0.113698 46.048191 -6.134851
v 0.063698 51.648193 -5.534851
v -24.586302 50.798195 -2.634851
v -30.286301 50.848194 -2.834851
v -18.986303 50.798195 -2.534851
v -21.186302 50.848194 -2.634851
v 2.105460 12.348194 -2.234848
v 2.013698 5.348194 -2.334848
v 2.105460 20.948193 -2.234849
v 2.105460 15.898193 -2.334848
v -9.686301 51.998192 -3.434851
v -12.686301 60.898193 -3.334852
v -13.586303 66.598190 -3.734852
v -15.686302 66.498192 -2.934852
v -35.236301 46.348194 -3.934851
v -37.636303 47.448193 -2.334851
v -31.886301 50.798195 -2.734851
v -35.286301 51.248192 -3.834851
v -24.636303 47.398193 -2.634851
v -30.236301 47.448193 -2.934851
v -18.936302 47.398193 -2.534851
v -13.586303 46.198193 -3.634851
v -19.086302 46.148193 -3.834851
v -17.286303 46.198193 -3.734851
v -19.136303 51.948193 -3.734851
v -17.236303 51.998192 -3.634851
v -21.236303 47.448193 -2.634851
v -31.936300 47.498192 -2.834851
v 9.713698 52.098194 -2.734851
v -7.586301 34.298195 -2.234850
v 7.713699 34.298195 -1.734850
v 30.113699 50.898193 -0.834851
v -2.386302 55.098194 -2.834852
v 12.613699 60.948193 -2.534852
v -13.886302 61.498192 -2.934852
v 13.513698 66.648193 -2.834852
v -6.586301 5.248192 -2.234848
v -1.886302 5.298191 -2.334848
v -1.844540 12.298191 -2.334848
v -6.494540 15.798191 -2.234848
v -6.494540 20.798193 -2.134849
v -1.794540 20.898193 -2.334849
v -6.544540 12.298191 -2.134848
v -1.794540 15.848194 -2.334848
v 2.313699 55.098194 -2.734852
v -13.536303 51.998192 -3.534851
v -10.186301 21.148193 -5.534849
v -9.186301 46.198193 -3.634851
v 24.413698 50.948193 -0.934851
v -2.286302 53.498192 -3.334851
v 2.413698 53.498192 -3.134851
v 13.813698 61.548195 -2.034852
v 15.563698 66.548195 -1.934852
v -37.686302 47.398193 -0.334851
v -31.986301 50.748192 0.365149
v -31.986301 47.448193 0.265149
v -35.386303 51.198193 1.065149
v -35.336300 46.298195 0.965149
v -24.686302 47.398193 0.465149
v -30.386301 47.448193 0.165149
v -24.786303 50.798195 0.465149
v -30.386301 50.848194 0.265149
v -19.036303 47.398193 0.565149
v -21.336302 47.398193 0.465149
v -19.086302 50.798195 0.565149
v -21.286303 50.798195 0.465149
v 30.063700 47.598194 -0.834851
v 24.463697 47.548195 -1.034851
v 18.813698 47.548195 -1.334851
v 21.063698 50.998192 -1.134851
v 18.863699 50.948193 -1.234851
v 13.563698 46.298195 -2.734851
v 17.263699 46.348194 -2.534851
v 19.063698 46.248192 -2.534851
v 17.213697 52.148193 -2.534851
v 19.113699 52.048195 -2.434851
v 6.663699 5.298191 -1.834848
v 6.755460 20.848192 -1.734849
v 6.805460 15.848194 -1.834849
v 6.755460 12.348194 -1.734848
v 13.613698 52.098194 -2.634851
v 9.413699 46.248192 -3.034851
v 10.463698 21.198193 -4.934849
v 21.113699 47.598194 -1.234851
v -14.936302 68.048195 -0.934852
v -15.086303 75.248192 -0.734853
v 31.713699 47.548195 -0.734851
v 35.063702 46.498192 -1.634851
v 37.413700 47.648193 0.065149
v 35.113701 51.298195 -1.534851
v 31.713699 50.948193 -0.734851
v -1.536302 5.498192 -3.034848
v -7.136302 5.498192 -3.134848
v -1.286302 21.498194 -8.834849
v 1.563698 5.548191 -2.934848
v 7.163699 5.548191 -2.734848
v 1.813698 21.548193 -8.834849
v -2.336302 54.648193 1.965149
v 1.963698 54.648193 2.065149
v -10.236301 34.198193 -4.134850
v 14.713698 68.098190 0.065148
v 14.813698 75.298195 0.265147
v -13.736302 51.898193 1.965149
v -13.786303 46.098194 1.865149
v -19.336302 51.848194 1.765149
v -17.386303 51.948193 1.865149
v -19.286303 46.048195 1.665149
v -17.486303 46.148193 1.765149
v 24.413698 50.898193 2.165149
v 24.363699 47.498192 2.065149
v 20.963697 50.948193 1.865149
v 21.013699 47.548195 1.865149
v 18.763699 50.898193 1.865149
v 18.713697 47.498192 1.765149
v -6.336302 5.198193 1.665152
v -6.244541 12.248192 1.765152
v -2.336302 5.198193 1.965152
v -2.244540 12.248192 1.965152
v -6.244541 15.748192 1.865152
v -6.244541 20.348192 1.865151
v -2.244540 15.748192 1.965152
v -2.244540 20.398193 2.065151
v 2.255460 12.298191 2.065152
v 6.255460 12.298191 2.165152
v 2.163698 5.248192 2.065152
v 6.163698 5.248192 2.065152
v 2.255460 20.398193 2.165151
v 6.255460 20.398193 2.165151
v 2.255460 15.798191 2.065152
v 6.255460 15.798191 2.165152
v 10.413699 34.248192 -3.434850
v 30.063700 47.548195 2.265149
v 30.013700 50.848194 2.265149
v 37.313702 47.598194 2.065149
v 34.863701 46.448193 3.265149
v 31.613699 47.598194 2.365149
v 34.913700 51.348194 3.365149
v 31.563700 50.898193 2.365149
v 13.363698 46.248192 2.765149
v 13.413698 52.048195 2.865149
v 17.063698 46.298195 2.965149
v 17.013699 52.098194 2.965149
v 18.863699 46.198193 2.965149
v 18.913698 51.998192 3.065149
v -0.986302 0.348194 -3.834847
v -7.586301 0.298191 -4.034847
v 7.713699 0.398193 -3.634847
v 1.113698 0.348194 -3.834847
v -2.336302 52.848194 1.565149
v -9.686301 51.948193 2.065149
v 2.163698 52.848194 1.765149
v -9.436301 46.098194 1.865149
v 9.363699 52.048195 2.665149
v 9.213698 46.148193 2.465149
v -10.486301 20.298193 3.265151
v 0.013698 22.998194 -1.334849
v 10.213698 20.348192 3.865151
v -12.586302 66.548195 0.465148
v -2.336302 54.148193 1.765149
v 1.963698 54.148193 1.865149
v -11.886302 60.148193 -0.134852
v -7.736301 56.298195 -1.534852
v 7.563699 56.298195 -1.034852
v -14.086303 75.098190 2.565147
v -12.186301 81.648193 0.165147
v -7.886302 34.198193 3.865150
v 12.363699 66.598190 1.265148
v 11.613699 60.198193 0.665148
v 13.613698 75.148193 3.465147
v -14.036303 67.298195 4.065147
v 11.863699 81.698196 0.965147
v -8.936301 45.198193 3.865149
v -10.686301 34.048195 5.565150
v 8.563699 45.198193 4.465149
v -0.236302 47.498192 4.765149
v 7.613698 34.198193 4.365150
v 10.213698 34.098194 6.265151
v 13.863698 67.548195 4.765148
v -4.636302 85.948196 0.565146
v 4.263698 85.948196 0.865146
v -1.786302 5.448193 2.065152
v -7.186302 5.448193 1.965152
v 1.513698 5.498192 2.165152
v 6.913699 5.498192 2.365152
v -2.186302 45.098194 5.865149
v 1.713698 45.098194 6.065149
v -1.886302 19.848192 7.565151
v 1.413698 19.898193 7.565151
v -0.236302 34.198196 6.365150
v 1.663698 34.148193 8.165150
v -2.236302 34.148193 8.065150
v -13.286303 77.748192 6.565147
v -0.386302 54.098194 6.965148
v 12.563699 77.798195 7.465147
v -4.986302 55.048195 6.865149
v 4.313698 55.098194 7.165149
v -6.286302 2.848194 8.765153
v -2.986302 2.848194 8.865153
v -7.786302 0.148193 9.065153
v -1.586302 0.148193 9.265153
v 0.913698 0.198193 9.265153
v 2.313699 2.898193 8.965153
v 7.113698 0.198193 9.465153
v 5.613698 2.898193 9.065153
v -9.136302 81.548195 7.565146
v 10.413699 69.248192 9.965147
v -9.736301 76.598190 10.565147
v -11.086302 69.198196 9.265147
v 8.363699 81.598190 8.165146
v 8.663699 76.648193 11.165147
v -0.486302 55.048195 10.265149
v -10.936301 75.548195 7.365147
v 10.163699 75.598190 8.065147
v -10.886302 64.048195 6.565148
v -0.586302 64.498192 12.765148
v 10.213698 64.098190 7.265148
v -0.586302 74.098198 12.665147
v -0.536302 82.398193 10.865147
v -10.436301 58.848194 8.565148
v -0.636302 62.098194 14.165148
v -0.586302 57.898193 13.165148
v 9.613699 58.848194 9.165148
v -6.136302 70.448196 13.665147
v -3.936302 78.098198 13.865148
v -6.136302 77.098190 11.265147
v 5.163698 77.098190 11.565147
v 4.963698 70.498199 13.965147
v 2.763698 78.098198 14.065147
v -0.586302 77.098190 11.965147
v 2.016948 54.169720 1.985241
v -17.636303 60.998196 -18.434851
v -23.836302 54.498196 -17.734852
v -12.986302 66.648193 -17.434853
v -22.236303 63.248196 -16.134853
v -16.636303 58.248196 -13.534852
v -21.336302 60.498196 -11.234852
v -11.386302 70.098190 -14.334853
v -19.636303 69.748199 -14.134853
v -16.086302 72.298195 -12.034853
v -11.636302 62.848198 -10.434853
v -18.186302 65.948196 -7.234853
v -10.486301 67.248199 -9.434853
v -12.036302 71.598198 -9.834853
v -15.086303 69.448196 -7.134852
v 17.636303 60.998196 -18.434851
v 23.836302 54.498196 -17.734852
v 12.986302 66.648193 -17.434853
v 22.236303 63.248196 -16.134853
v 16.636303 58.248196 -13.534852
v 21.336302 60.498196 -11.234852
v 11.386302 70.098190 -14.334853
v 19.636303 69.748199 -14.134853
v 16.086302 72.298195 -12.034853
v 11.636302 62.848198 -10.434853
v 18.186302 65.948196 -7.234853
v 10.486301 67.248199 -9.434853
v 12.036302 71.598198 -9.834853
v 15.086303 69.448196 -7.134852
vn -0.3084 0.4489 -0.8387
vn 0.4333 -0.2339 -0.8704
vn -0.3687 -0.2334 -0.8998
vn 0.3734 0.4451 -0.8139
vn -0.2421 -0.7249 -0.6449
vn 0.2913 -0.7245 -0.6247
vn -0.8835 0.2202 -0.4134
vn -0.8399 -0.1912 -0.5080
vn 0.9083 0.2198 -0.3559
vn 0.8750 -0.1831 -0.4481
vn 0.2506 0.9154 -0.3151
vn -0.2226 0.9172 -0.3306
vn -0.5665 -0.6696 -0.4803
vn 0.5981 -0.6684 -0.4421
vn -0.6589 0.6726 -0.3369
vn 0.6832 0.6668 -0.2978
vn 0.2204 -0.8915 -0.3957
vn -0.1933 -0.8929 -0.4067
vn -0.6562 -0.6928 -0.2991
vn -0.0425 -0.8461 -0.5313
vn 0.0916 -0.8563 -0.5083
vn 0.0151 -0.8900 -0.4557
vn 0.6745 -0.6907 -0.2608
vn -0.7723 -0.5271 -0.3546
vn -0.8650 0.0062 -0.5017
vn -0.9868 0.1611 0.0171
vn 0.8047 -0.5043 -0.3133
vn 0.0168 -0.9974 -0.0705
vn 0.8964 0.0144 -0.4431
vn 0.9846 0.1612 0.0674
vn -0.5012 -0.8531 -0.1449
vn 0.5107 -0.8520 -0.1150
vn 0.0340 0.0972 -0.9947
vn 0.0196 -0.8400 -0.5422
vn -0.6946 -0.6447 -0.3192
vn 0.7361 -0.6147 -0.2834
vn -0.4328 -0.8769 -0.2090
vn 0.4535 -0.8716 -0.1865
vn -0.1348 0.8870 -0.4417
vn 0.0313 0.4867 -0.8730
vn -0.7430 0.6686 0.0320
vn 0.4847 -0.7729 -0.4096
vn -0.4610 -0.7817 -0.4201
vn 0.1526 0.8894 -0.4309
vn -0.5797 -0.3680 -0.7270
vn -0.2367 0.9673 0.0908
vn 0.2220 0.9697 0.1021
vn 0.7367 0.6725 0.0709
vn 0.0079 0.9016 -0.4326
vn 0.0084 -0.8864 -0.4628
vn 0.5039 0.7537 -0.4219
vn 0.6263 -0.3943 -0.6725
vn -0.4868 0.7250 -0.4872
vn -0.0730 -0.8994 -0.4310
vn 0.0939 0.8998 -0.4262
vn 0.2113 -0.8542 -0.4751
vn -0.3629 0.8491 -0.3839
vn 0.0049 0.9026 -0.4304
vn 0.0271 -0.8878 -0.4594
vn -0.6475 0.6793 -0.3454
vn -0.6321 -0.6854 -0.3615
vn -0.6938 -0.6215 -0.3637
vn 0.6487 0.7028 -0.2921
vn 0.7376 -0.5895 -0.3292
vn -0.6205 0.7173 -0.3170
vn -0.7488 -0.6248 0.2211
vn 0.7371 -0.5894 -0.3305
vn -0.6190 0.7179 -0.3186
vn 0.6495 0.7035 -0.2885
vn -0.6926 -0.6228 -0.3639
vn 0.0043 0.8940 -0.4481
vn 0.0080 -0.8870 -0.4616
vn 0.0120 -0.8968 -0.4423
vn 0.0123 0.8990 -0.4379
vn -0.0174 -0.8892 -0.4572
vn -0.0127 0.8959 -0.4441
vn 0.0052 0.8982 -0.4395
vn 0.0342 -0.8895 -0.4557
vn -0.8932 -0.4351 -0.1135
vn -0.9895 0.0915 -0.1119
vn -0.9356 -0.2497 -0.2495
vn 0.0004 -0.8935 -0.4491
vn 0.0412 0.8847 -0.4644
vn 0.0378 0.9006 -0.4329
vn -0.0051 -0.8875 -0.4607
vn 0.7050 0.6380 -0.3097
vn 0.6684 -0.6701 -0.3227
vn 0.7194 -0.6475 0.2513
vn -0.0147 -0.7835 0.6212
vn 0.9405 -0.0034 -0.3399
vn 0.9400 -0.0121 -0.3410
vn -0.8977 0.0024 -0.4405
vn -0.8956 -0.0018 -0.4448
vn -0.9225 0.0036 -0.3861
vn -0.9149 0.0049 -0.4037
vn 0.9207 -0.0100 -0.3901
vn 0.9250 -0.0030 -0.3799
vn -0.8387 -0.5317 0.1176
vn 0.8948 -0.4373 -0.0897
vn -0.9888 -0.0803 0.1260
vn 0.9899 0.1060 -0.0937
vn -0.9210 0.0070 -0.3895
vn 0.9275 -0.0109 -0.3737
vn 0.8972 0.0056 -0.4415
vn -0.8893 0.0099 -0.4571
vn 0.9404 -0.0074 -0.3400
vn -0.9018 0.0180 -0.4318
vn -0.8640 0.0103 -0.5034
vn 0.9131 0.0127 -0.4075
vn -0.0109 -0.8942 0.4475
vn 0.3843 0.6316 0.6733
vn -0.1413 0.8833 0.4469
vn -0.0106 -0.9020 0.4317
vn -0.3764 -0.9156 0.1417
vn 0.0268 -0.8827 -0.4692
vn 0.0271 0.9032 -0.4284
vn 0.0168 -0.8882 -0.4591
vn 0.0192 0.9042 -0.4268
vn 0.1082 0.8855 0.4519
vn 0.8289 -0.5329 0.1698
vn -0.8746 -0.1763 0.4516
vn 0.9849 -0.0711 0.1580
vn -0.0007 -0.7402 0.6724
vn 0.2379 -0.7254 0.6459
vn -0.9322 -0.2812 0.2279
vn -0.3117 0.7420 0.5936
vn 0.0989 0.8732 0.4772
vn -0.0309 -0.9027 0.4292
vn -0.0156 -0.8341 0.5513
vn -0.0225 -0.7033 0.7106
vn -0.0148 0.8852 0.4650
vn -0.0383 0.8568 0.5143
vn -0.7113 0.6255 0.3207
vn -0.5373 -0.5390 0.6487
vn 0.1359 -0.8950 -0.4249
vn 0.4132 0.8303 -0.3740
vn 0.9513 -0.2315 -0.2037
vn -0.1057 0.8989 -0.4252
vn -0.2080 -0.8637 -0.4591
vn 0.0101 0.8968 -0.4423
vn 0.0132 -0.8854 -0.4646
vn 0.0391 -0.8945 -0.4453
vn -0.0006 0.9028 -0.4300
vn 0.8342 -0.0007 0.5515
vn 0.8506 -0.0070 0.5258
vn -0.8714 -0.0022 0.4906
vn -0.0122 -0.8988 0.4382
vn 0.0215 -0.9287 0.3702
vn 0.3785 -0.9094 0.1722
vn -0.0306 -0.9325 0.3597
vn -0.2131 -0.9765 -0.0328
vn 0.2216 -0.9751 -0.0134
vn 0.8415 -0.1792 0.5096
vn 0.6150 0.7722 0.1600
vn -0.6318 0.7640 0.1308
vn -0.8760 -0.0004 0.4824
vn -0.8687 -0.0000 0.4954
vn 0.8350 -0.0153 0.5501
vn -0.8946 -0.0046 0.4468
vn 0.8717 -0.0091 0.4900
vn 0.8478 -0.0060 0.5304
vn -0.6321 0.7640 0.1296
vn 0.6145 0.7720 0.1628
vn -0.9115 -0.3053 0.2756
vn -0.7306 -0.6190 0.2882
vn -0.0242 0.7022 0.7116
vn -0.0154 0.8241 0.5663
vn -0.0226 0.7057 0.7081
vn 0.8542 0.0026 0.5200
vn 0.6055 -0.7501 0.2659
vn -0.0155 -0.8998 0.4361
vn -0.0207 0.8923 0.4510
vn -0.0265 -0.9023 0.4304
vn -0.4472 0.6069 0.6570
vn -0.9719 0.0437 0.2313
vn -0.0242 0.6694 0.7425
vn -0.0232 -0.5730 0.8192
vn -0.0239 -0.7824 0.6223
vn -0.0355 0.7175 0.6956
vn -0.0258 0.8885 0.4582
vn -0.0150 0.7465 0.6652
vn -0.0274 -0.8925 0.4502
vn 0.4616 0.4698 0.7524
vn 0.5844 -0.6742 0.4515
vn 0.8362 -0.0187 0.5482
vn 0.8385 -0.0073 0.5448
vn 0.8635 -0.0047 0.5043
vn 0.8947 -0.2826 0.3459
vn 0.6973 -0.6393 0.3243
vn -0.2498 -0.7569 0.6038
vn 0.9585 0.0588 0.2789
vn 0.0607 -0.9126 0.4043
vn 0.9172 -0.2886 0.2746
vn 0.2374 0.7662 0.5972
vn -0.2176 0.6822 0.6980
vn 0.5421 -0.4176 0.7292
vn -0.6793 -0.4859 0.5500
vn -0.7405 -0.5776 0.3434
vn 0.6271 -0.5075 0.5910
vn -0.8841 -0.0022 0.4673
vn -0.8829 0.0058 0.4695
vn -0.8975 -0.0957 0.4306
vn -0.0167 0.8839 0.4675
vn -0.0285 0.8872 0.4605
vn -0.8785 0.0069 0.4777
vn -0.9049 -0.0093 0.4255
vn -0.7453 0.2023 0.6354
vn -0.0337 0.4585 0.8880
vn -0.8834 0.0029 0.4686
vn -0.8113 -0.4536 0.3688
vn -0.3874 -0.8985 0.2064
vn 0.3720 -0.8991 0.2306
vn 0.7677 -0.4605 0.4456
vn -0.5105 0.7178 0.4735
vn 0.6900 0.2092 0.6929
vn -0.0031 -0.9890 0.1477
vn 0.8483 -0.0030 0.5295
vn -0.7807 -0.1218 0.6129
vn -0.8734 0.2735 0.4029
vn 0.4717 0.7222 0.5058
vn 0.7261 -0.1188 0.6772
vn -0.1403 -0.9895 -0.0352
vn 0.8438 0.2790 0.4584
vn -0.0258 0.7953 0.6057
vn 0.1944 -0.9801 -0.0388
vn 0.2866 0.5560 0.7802
vn -0.4305 0.6817 0.5915
vn -0.1765 0.3731 0.9108
vn 0.1060 0.3834 0.9175
vn -0.0608 -0.9224 0.3814
vn -0.0057 -0.9857 0.1686
vn -0.4160 0.6277 0.6579
vn 0.2408 0.5222 0.8181
vn 0.0355 -0.9252 0.3777
vn -0.0170 -0.8786 0.4772
vn -0.7427 0.2289 0.6293
vn -0.6960 0.1370 0.7049
vn -0.2525 -0.9676 -0.0076
vn 0.6667 0.2324 0.7082
vn -0.0375 -0.0056 0.9993
vn 0.2838 -0.9589 -0.0024
vn 0.5551 0.0698 0.8288
vn 0.0340 0.1212 0.9920
vn -0.0397 0.2796 0.9593
vn 0.0487 -0.4711 0.8807
vn -0.1683 -0.0195 0.9855
vn -0.8233 -0.0178 0.5674
vn -0.3974 -0.3764 0.8369
vn -0.5222 0.4421 0.7293
vn 0.0154 0.3132 0.9496
vn -0.9177 0.3419 -0.2026
vn 0.3984 -0.2892 -0.8704
vn -0.5691 -0.8154 -0.1059
vn 0.6777 0.0299 -0.7348
vn -0.7360 0.6644 -0.1300
vn 0.5419 -0.8354 0.0920
vn 0.7812 0.5078 -0.3631
vn -0.2982 0.9538 -0.0373
vn 0.8014 -0.5782 0.1533
vn -0.7466 -0.2182 0.6284
vn 0.9685 -0.0956 0.2298
vn -0.6015 0.0661 0.7961
vn 0.5417 0.8171 0.1970
vn -0.1772 0.4907 0.8531
vn -0.9177 -0.3419 0.2026
vn 0.3984 0.2892 0.8704
vn -0.5691 0.8154 0.1059
vn 0.6777 -0.0299 0.7348
vn -0.7360 -0.6644 0.1300
vn 0.5419 0.8354 -0.0920
vn 0.7812 -0.5078 0.3631
vn -0.2982 -0.9538 0.0373
vn 0.8014 0.5782 -0.1533
vn -0.7466 0.2182 -0.6284
vn 0.9685 0.0956 -0.2298
vn -0.6015 -0.0661 -0.7961
vn 0.5417 -0.8171 -0.1970
vn -0.1772 -0.4907 -0.8531
vt 0.887431 0.873647
vt 0.851354 0.841664
vt 0.892691 0.841779
vt 0.856383 0.874020
vt 0.891997 0.804605
vt 0.852437 0.805415
vt 0.913546 0.878554
vt 0.920293 0.846394
vt 0.831857 0.878363
vt 0.824921 0.846613
vt 0.860927 0.894881
vt 0.884107 0.895245
vt 0.914757 0.804140
vt 0.830686 0.804750
vt 0.900810 0.890439
vt 0.844283 0.889904
vt 0.852174 0.784626
vt 0.893605 0.784469
vt 0.948442 0.808247
vt 0.911195 0.115026
vt 0.907099 0.129022
vt 0.899992 0.122620
vt 0.798520 0.808593
vt 0.905276 0.159288
vt 0.948153 0.844800
vt 0.933519 0.888849
vt 0.925098 0.075000
vt 0.912562 0.126068
vt 0.798342 0.844649
vt 0.812904 0.888009
vt 0.922178 0.772341
vt 0.824629 0.772136
vt 0.928848 0.385277
vt 0.863944 0.385733
vt 0.861145 0.365358
vt 0.861792 0.405847
vt 0.861565 0.385815
vt 0.858765 0.369612
vt 0.859314 0.401739
vt 0.352941 0.027451
vt 0.250980 0.101961
vt 0.352941 0.094118
vt 0.910156 0.903124
vt 0.858803 0.764380
vt 0.887976 0.765132
vt 0.904443 0.144366
vt 0.250980 0.031372
vt 0.884970 0.908819
vt 0.860655 0.908495
vt 0.835850 0.902420
vt 0.888515 0.328261
vt 0.886625 0.309540
vt 0.902916 0.297803
vt 0.886317 0.309675
vt 0.913266 0.104094
vt 0.329412 0.117647
vt 0.828077 0.560811
vt 0.850968 0.533190
vt 0.830351 0.565971
vt 0.828855 0.560359
vt 0.886489 0.309483
vt 0.886495 0.309462
vt 0.062745 0.023529
vt 0.074510 0.011765
vt 0.062745 0.011765
vt 0.074510 0.023529
vt 0.372549 0.121569
vt 0.364706 0.196078
vt 0.903875 0.175000
vt 0.888498 0.443231
vt 0.337255 0.082353
vt 0.286275 0.082353
vt 0.313726 0.054902
vt 0.883406 0.635905
vt 0.836768 0.689760
vt 0.834586 0.640175
vt 0.888008 0.687274
vt 0.833146 0.577569
vt 0.869552 0.551886
vt 0.958169 0.565412
vt 0.959453 0.549153
vt 0.965058 0.549255
vt 0.963798 0.565519
vt 0.899952 0.472069
vt 0.885628 0.459873
vt 0.885392 0.459739
vt 0.894252 0.696705
vt 0.899082 0.680366
vt 0.900967 0.684139
vt 0.900824 0.696050
vt 0.828295 0.560552
vt 0.837661 0.725000
vt 0.889430 0.720863
vt 0.885530 0.459903
vt 0.885539 0.459916
vt 0.923352 0.095983
vt 0.819136 0.575237
vt 0.915779 0.586395
vt 0.875414 0.586786
vt 0.874676 0.532549
vt 0.916111 0.532102
vt 0.825323 0.639662
vt 0.825314 0.639621
vt 0.825321 0.639664
vt 0.825354 0.639672
vt 0.904786 0.675318
vt 0.900541 0.565188
vt 0.898616 0.568915
vt 0.894252 0.552707
vt 0.901976 0.702225
vt 0.900651 0.553643
vt 0.597974 0.985818
vt 0.576185 0.899049
vt 0.634913 0.755000
vt 0.572407 0.889061
vt 0.874676 0.720028
vt 0.865625 0.532102
vt 0.635659 0.827775
vt 0.743077 0.755000
vt 0.744595 0.826933
vt 0.634913 0.755825
vt 0.975000 0.532348
vt 0.973441 0.586665
vt 0.813647 0.640118
vt 0.966345 0.540511
vt 0.881043 0.284781
vt 0.886333 0.309216
vt 0.920151 0.149834
vt 0.916273 0.654764
vt 0.865375 0.641310
vt 0.916650 0.632056
vt 0.907183 0.667873
vt 0.250980 0.529412
vt 0.250980 0.619608
vt 0.368627 0.619608
vt 0.899650 0.654494
vt 0.904325 0.574399
vt 0.953146 0.858020
vt 0.912309 0.696637
vt 0.902021 0.547423
vt 0.828043 0.560427
vt 0.825488 0.564176
vt 0.828217 0.560434
vt 0.828173 0.560029
vt 0.809922 0.525000
vt 0.813566 0.724595
vt 0.813343 0.688941
vt 0.886467 0.309424
vt 0.886533 0.309381
vt 0.886488 0.309451
vt 0.931576 0.564692
vt 0.930664 0.563629
vt 0.931361 0.563929
vt 0.914468 0.526288
vt 0.929098 0.569664
vt 0.889481 0.544338
vt 0.925198 0.580314
vt 0.917850 0.660371
vt 0.917866 0.661538
vt 0.915202 0.610277
vt 0.825316 0.639665
vt 0.825291 0.639658
vt 0.885383 0.460128
vt 0.880682 0.484750
vt 0.914890 0.139562
vt 0.853323 0.367359
vt 0.853731 0.403646
vt 0.929851 0.111903
vt 0.918643 0.123682
vt 0.894909 0.634787
vt 0.903806 0.632706
vt 0.903627 0.617115
vt 0.894825 0.614462
vt 0.899140 0.594991
vt 0.793623 0.857460
vt 0.912289 0.553164
vt 0.317647 0.196078
vt 0.510800 0.995000
vt 0.575568 0.886644
vt 0.579135 0.893398
vt 0.510800 0.777102
vt 0.784284 0.561314
vt 0.775000 0.720028
vt 0.825323 0.639712
vt 0.874280 0.319644
vt 0.853796 0.361976
vt 0.759620 0.689152
vt 0.761287 0.633222
vt 0.784990 0.540419
vt 0.825320 0.639663
vt 0.960040 0.540613
vt 0.961716 0.540586
vt 0.938998 0.580820
vt 0.931628 0.725000
vt 0.931188 0.635090
vt 0.368627 0.537255
vt 0.940293 0.896667
vt 0.000000 1.000000
vt 0.836594 0.709375
vt 0.956284 0.509375
vt 0.958017 0.709375
vt 0.759620 0.723934
vt 0.918356 0.660503
vt 0.921438 0.656821
vt 0.918488 0.661565
vt 0.885553 0.459993
vt 0.885528 0.459925
vt 0.885512 0.459943
vt 0.635240 0.858885
vt 0.744176 0.858043
vt 0.968364 0.610005
vt 0.873825 0.450853
vt 0.854166 0.408997
vt 0.874726 0.610125
vt 0.934455 0.568546
vt 0.969143 0.857440
vt 0.805993 0.896084
vt 0.931778 0.564145
vt 0.931505 0.563999
vt 0.931762 0.563452
vt 0.961655 0.525000
vt 0.250980 0.121569
vt 0.915234 0.656525
vt 0.874676 0.656481
vt 0.958169 0.525809
vt 0.964403 0.525013
vt 0.985562 0.664465
vt 0.777862 0.856992
vt 0.985562 0.550995
vt 0.634913 0.920687
vt 0.743846 0.919850
vt 0.968524 0.656341
vt 0.866274 0.323667
vt 0.341176 0.431373
vt 0.250980 0.415686
vt 0.368627 0.341176
vt 0.920866 0.684812
vt 0.919537 0.666074
vt 0.914046 0.642106
vt 0.913711 0.608254
vt 0.903853 0.616912
vt 0.918856 0.584696
vt 0.906244 0.919440
vt 0.814213 0.653908
vt 0.965880 0.631969
vt 0.940961 0.715000
vt 0.916713 0.535000
vt 0.814213 0.547058
vt 0.058823 0.023529
vt 0.047059 0.023529
vt 0.054902 0.011765
vt 0.813919 0.302197
vt 0.865666 0.446832
vt 0.912739 0.625387
vt 0.921104 0.565715
vt 0.934329 0.721534
vt 0.921229 0.724987
vt 0.927656 0.910397
vt 0.840286 0.919109
vt 0.813919 0.467702
vt 0.922567 0.525013
vt 0.936304 0.529160
vt 0.991841 0.900556
vt 0.818665 0.910107
vt 0.873587 0.931816
vt 0.756608 0.898471
vt 0.254902 0.160784
vt 0.823674 0.319620
vt 0.823600 0.450566
vt 0.840811 0.379830
vt 0.929851 0.132824
vt 0.842430 0.385345
vt 0.937087 0.926185
vt 0.840878 0.390650
vt 0.156863 0.749020
vt 0.215686 0.749020
vt 0.188235 0.776471
vt 0.809608 0.926300
vt 0.156863 0.623529
vt 0.215686 0.623529
vt 0.919565 0.625559
vt 0.926373 0.933619
vt 0.039216 0.184314
vt 0.078431 0.184314
vt 0.000000 0.215686
vt 0.967996 0.951669
vt 0.821017 0.934195
vt 0.113725 0.184314
vt 0.152941 0.215686
vt 0.560784 0.490196
vt 0.486275 0.498039
vt 0.486275 0.415686
vt 0.560784 0.086274
vt 0.560784 0.168627
vt 0.486275 0.160784
vt 0.778711 0.951464
vt 0.957160 0.669866
vt 0.909772 0.948967
vt 0.837086 0.948907
vt 0.958143 0.583648
vt 0.560784 0.419608
vt 0.486275 0.090196
vt 0.078431 0.207843
vt 0.521569 0.509804
vt 0.525490 0.180392
vt 0.560784 0.403922
vt 0.486275 0.074510
vt 0.602553 0.511513
vt 0.585252 0.438312
vt 0.894008 0.950739
vt 0.873888 0.960701
vt 0.853569 0.950777
vt 0.078431 0.243137
vt 0.920861 0.990453
vt 0.827352 0.990236
vt 0.870598 0.898308
vt 0.913946 0.902793
vt 0.884203 0.970161
vt 0.932815 0.845093
vt 0.870598 0.839774
vt 0.925210 0.915772
vt 0.932801 0.811490
vt 0.888829 0.807692
vt 0.947947 0.862920
vt 0.775514 0.916203
vt 0.804537 0.904012
vt 0.784379 0.973412
vt 0.813528 0.905468
vt 0.856193 0.917428
vt 0.832160 0.971471
vt 0.947947 0.829242
vt 0.980000 0.832952
vt 0.967220 0.854900
vt 0.952443 0.798240
vt 0.811333 0.845998
vt 0.770000 0.861893
vt 0.919896 0.798240
vt 0.870597 0.864660
vt 0.811333 0.847780
vt 0.947947 0.867623
vt 0.770000 0.824235
vt 0.799781 0.811757
vt 0.774195 0.798240
vt 0.828797 0.814680
vt 0.870597 0.826363
vt 0.860604 0.798240
vt 0.870598 0.913933
vt 0.913946 0.918418
vt 0.884203 0.985786
vt 0.932815 0.860718
vt 0.870598 0.855399
vt 0.925210 0.931397
vt 0.932801 0.827115
vt 0.888829 0.823317
vt 0.947947 0.878545
vt 0.775514 0.931828
vt 0.804537 0.919637
vt 0.784379 0.989037
vt 0.813528 0.921093
vt 0.856193 0.933053
vt 0.832160 0.987096
vt 0.963572 0.860492
vt 0.995625 0.864202
vt 0.982845 0.886150
vt 0.968068 0.829490
vt 0.811333 0.861623
vt 0.770000 0.877518
vt 0.919896 0.813865
vt 0.870598 0.880285
vt 0.811333 0.863405
vt 0.967220 0.870525
vt 0.947947 0.883248
vt 0.947947 0.844867
vt 0.770000 0.839860
vt 0.799781 0.827382
vt 0.774195 0.813865
vt 0.828797 0.830305
vt 0.870598 0.841988
vt 0.860604 0.813865
vt 0.818052 0.597427
vt 0.840222 0.545000
vt 0.840539 0.596491
vt 0.817718 0.550524
vt 0.839896 0.632684
vt 0.817920 0.633113
vt 0.558857 0.898634
vt 0.558429 0.876657
vt 0.759620 0.725285
vt 0.863140 0.548106
s 1
usemtl output_31_tex0
f 3/1/1 2/2/2 1/3/3
f 2/2/2 3/1/1 4/4/4
f 2/2/2 5/5/5 1/3/3
f 5/5/5 2/2/2 6/6/6
f 1/3/3 8/7/7 3/1/1
f 8/7/7 1/3/3 7/8/8
f 2/2/2 13/9/9 9/10/10
f 13/9/9 2/2/2 4/4/4
f 3/1/1 16/11/11 4/4/4
f 16/11/11 3/1/1 12/12/12
f 7/8/8 5/5/5 14/13/13
f 5/5/5 7/8/8 1/3/3
f 9/10/10 6/6/6 2/2/2
f 6/6/6 9/10/10 20/14/14
f 11/15/15 3/1/1 8/7/7
f 12/12/12 3/1/1 11/15/15
f 4/4/4 16/11/11 17/16/16
f 4/4/4 17/16/16 13/9/9
f 19/17/17 5/5/5 6/6/6
f 5/5/5 19/17/17 18/18/18
f 14/13/13 5/5/5 18/18/18
f 6/6/6 20/14/14 19/17/17
f 14/13/13 32/19/19 7/8/8
f 117/20/20 114/21/21 15/22/22
f 54/23/23 20/14/14 9/10/10
f 15/22/22 114/21/21 67/24/24
f 8/7/7 33/25/25 106/26/26
f 33/25/25 8/7/7 7/8/8
f 103/27/27 117/20/20 15/22/22
f 176/28/28 114/21/21 117/20/20
f 13/9/9 56/29/29 9/10/10
f 56/29/29 13/9/9 122/30/30
f 14/13/13 18/18/18 182/31/31
f 19/17/17 20/14/14 183/32/32
f 32/19/19 33/25/25 7/8/8
f 21/33/33 10/34/34 120/35/35
f 10/34/34 21/33/33 151/36/36
f 10/34/34 15/37/22 50/38/37
f 51/39/38 15/37/22 10/34/34
f 21/40/33 31/41/39 22/42/40
f 185/43/41 8/7/7 106/26/26
f 8/7/7 185/43/41 11/15/15
f 65/44/42 18/18/18 19/17/17
f 18/18/18 65/44/42 53/45/43
f 56/29/29 54/23/23 9/10/10
f 120/35/35 10/34/34 50/38/37
f 15/22/22 67/24/24 50/46/37
f 51/39/38 10/34/34 151/36/36
f 49/41/44 21/40/33 22/42/40
f 21/40/33 68/47/45 31/41/39
f 16/11/11 199/48/46 200/49/47
f 199/48/46 16/11/11 12/12/12
f 199/48/46 11/15/15 185/43/41
f 11/15/15 199/48/46 12/12/12
f 191/50/48 13/9/9 17/16/16
f 13/9/9 191/50/48 122/30/30
f 14/13/13 182/31/31 32/19/19
f 68/51/45 21/33/33 120/35/35
f 66/52/49 31/53/39 42/54/50
f 68/51/45 42/54/50 31/53/39
f 103/27/27 15/22/22 51/55/38
f 71/56/51 49/41/44 22/42/40
f 49/41/44 102/47/52 21/40/33
f 22/42/40 31/41/39 70/56/53
f 200/49/47 17/16/16 16/11/11
f 17/16/16 200/49/47 191/50/48
f 18/18/18 53/45/43 182/31/31
f 65/44/42 19/17/17 183/32/32
f 183/32/32 20/14/14 54/23/23
f 35/57/54 37/58/55 48/59/56
f 37/58/55 35/57/54 38/60/57
f 46/61/58 42/54/50 44/62/59
f 42/54/50 46/61/58 66/52/49
f 45/63/60 44/64/59 43/65/61
f 44/64/59 45/63/60 46/66/58
f 166/67/62 112/68/63 165/67/64
f 112/68/63 166/67/62 113/68/65
f 175/69/66 67/24/24 114/21/21
f 167/67/67 115/68/68 116/68/69
f 115/68/68 167/67/67 168/67/70
f 21/33/33 102/70/52 151/36/36
f 70/71/53 71/72/51 22/73/40
f 23/74/71 47/75/72 39/76/73
f 23/74/71 26/77/74 47/75/72
f 48/59/56 37/58/55 40/78/75
f 24/79/76 40/78/75 37/58/55
f 53/80/43 65/81/42 71/82/51
f 71/82/51 70/83/53 53/80/43
f 49/84/44 101/85/77 92/86/78
f 92/86/78 102/70/52 49/84/44
f 33/87/25 32/88/19 55/89/79
f 55/89/79 34/90/80 33/87/25
f 38/60/57 35/57/54 36/91/81
f 39/76/73 24/79/76 23/74/71
f 24/79/76 39/76/73 40/78/75
f 41/92/82 26/77/74 25/93/83
f 26/77/74 41/92/82 47/75/72
f 95/94/84 92/86/78 101/85/77
f 92/86/78 95/94/84 93/95/85
f 96/63/86 93/64/85 95/66/84
f 93/64/85 96/63/86 94/65/87
f 103/27/27 177/96/88 117/20/20
f 40/78/75 80/97/89 48/59/56
f 99/98/90 100/99/91 27/100/92
f 27/100/92 30/101/93 99/98/90
f 63/102/94 60/103/95 59/104/96
f 64/105/97 59/104/96 60/103/95
f 32/88/19 181/106/98 55/89/79
f 72/107/99 54/108/23 56/109/29
f 105/110/100 33/87/25 34/90/80
f 56/109/29 73/111/101 72/107/99
f 57/112/102 59/113/96 58/114/103
f 59/113/96 57/112/102 63/115/94
f 60/103/95 62/116/104 64/105/97
f 62/116/104 60/103/95 61/117/105
f 97/118/106 27/119/92 100/120/91
f 27/119/92 97/118/106 28/121/107
f 99/98/90 29/122/108 98/123/109
f 29/122/108 99/98/90 30/101/93
f 39/76/73 47/75/72 79/124/110
f 171/125/111 71/82/51 65/81/42
f 31/53/39 66/52/49 170/126/112
f 42/54/50 68/51/45 124/127/113
f 186/128/114 50/46/37 67/24/24
f 104/129/115 69/130/116 88/131/117
f 90/132/118 69/130/116 104/129/115
f 173/133/119 49/134/44 71/135/51
f 31/134/39 170/133/112 70/135/53
f 182/136/31 181/106/98 32/88/19
f 188/137/120 54/108/23 72/107/99
f 106/26/26 33/25/25 105/138/100
f 34/90/80 55/89/79 178/139/121
f 105/110/100 34/90/80 178/139/121
f 121/140/122 73/111/101 56/109/29
f 78/141/123 48/59/56 76/142/124
f 48/59/56 78/141/123 35/57/54
f 74/143/125 35/57/54 78/141/123
f 35/57/54 74/143/125 36/91/81
f 36/91/81 77/144/126 38/60/57
f 77/144/126 36/91/81 74/143/125
f 38/60/57 75/145/127 37/58/55
f 75/145/127 38/60/57 77/144/126
f 79/124/110 40/78/75 39/76/73
f 40/78/75 79/124/110 80/97/89
f 83/146/128 47/75/72 41/92/82
f 47/75/72 83/146/128 84/147/129
f 44/62/59 124/127/113 128/148/130
f 124/127/113 44/62/59 42/54/50
f 123/149/131 46/61/58 126/150/132
f 46/61/58 123/149/131 66/52/49
f 125/63/133 43/65/61 127/65/134
f 43/65/61 125/63/133 45/63/60
f 43/65/61 128/64/130 127/65/134
f 128/64/130 43/65/61 44/64/59
f 125/63/133 46/66/58 45/63/60
f 46/66/58 125/63/133 126/66/132
f 108/151/135 110/152/136 109/153/137
f 108/151/135 111/154/138 110/152/136
f 111/154/138 108/151/135 107/155/139
f 88/131/117 52/156/140 87/157/141
f 52/156/140 88/131/117 69/130/116
f 89/158/142 90/132/118 104/129/115
f 90/132/118 89/158/142 91/159/143
f 47/75/72 84/147/129 79/124/110
f 76/142/124 48/59/56 80/97/89
f 100/99/91 99/98/90 150/160/144
f 59/104/96 64/105/97 138/161/145
f 60/103/95 63/102/94 139/162/146
f 102/70/52 92/86/78 159/163/147
f 101/85/77 49/84/44 173/164/119
f 176/28/28 207/165/148 114/21/21
f 50/38/37 186/166/114 120/35/35
f 196/167/149 51/39/38 151/36/36
f 51/55/38 196/168/149 103/27/27
f 176/28/28 117/20/20 208/169/150
f 111/154/138 107/155/139 87/157/141
f 87/157/141 52/156/140 111/154/138
f 182/136/31 53/170/43 179/171/151
f 180/172/152 65/173/42 183/174/32
f 54/108/23 188/137/120 183/174/32
f 55/89/79 181/106/98 178/139/121
f 56/29/29 122/30/30 121/175/122
f 72/107/99 73/111/101 187/176/153
f 113/68/65 201/177/154 112/68/63
f 201/177/154 113/68/65 202/177/155
f 135/178/156 63/115/94 57/112/102
f 63/115/94 135/178/156 136/179/157
f 58/114/103 138/180/145 137/181/158
f 138/180/145 58/114/103 59/113/96
f 139/162/146 61/117/105 60/103/95
f 61/117/105 139/162/146 140/182/159
f 64/105/97 142/183/160 141/184/161
f 142/183/160 64/105/97 62/116/104
f 116/68/69 203/177/162 204/177/163
f 203/177/162 116/68/69 115/68/68
f 120/35/35 172/185/164 68/51/45
f 172/185/164 120/35/35 193/186/165
f 79/124/110 86/187/166 81/188/167
f 79/124/110 84/147/129 86/187/166
f 80/97/89 82/189/168 76/142/124
f 75/145/127 76/142/124 82/189/168
f 136/190/157 139/162/146 63/102/94
f 141/184/161 138/161/145 64/105/97
f 65/81/42 119/191/169 250/192/170 171/125/111
f 170/126/112 66/52/49 123/149/131
f 175/69/66 186/128/114 67/24/24
f 172/185/164 124/127/113 68/51/45
f 152/193/171 87/157/141 107/155/139
f 90/132/118 131/194/172 69/130/116
f 104/129/115 88/131/117 130/195/173
f 170/133/112 169/196/174 70/135/53
f 71/135/51 171/196/111 173/133/119
f 188/137/120 72/107/99 187/176/153
f 184/197/175 106/26/26 105/138/100
f 121/140/122 187/176/153 73/111/101
f 78/141/123 77/144/126 74/143/125
f 77/144/126 76/142/124 75/145/127
f 76/198/124 77/198/126 78/198/123
f 76/198/124 77/198/126 78/198/123
f 76/142/124 77/144/126 78/141/123
f 81/188/167 80/97/89 79/124/110
f 80/97/89 81/188/167 82/189/168
f 80/198/89 81/198/167 82/198/168
f 80/199/89 81/200/167 82/201/168
f 85/202/176 84/147/129 83/146/128
f 84/198/129 85/198/176 86/198/166
f 84/198/129 85/198/176 86/198/166
f 84/147/129 85/202/176 86/187/166
f 130/195/173 87/157/141 152/193/171
f 87/157/141 130/195/173 88/131/117
f 134/203/177 104/129/115 132/204/178
f 104/129/115 134/203/177 89/158/142
f 91/159/143 131/194/172 90/132/118
f 131/194/172 91/159/143 133/205/179
f 160/206/180 95/94/84 101/85/77
f 95/94/84 160/206/180 162/207/181
f 93/95/85 159/163/147 92/86/78
f 159/163/147 93/95/85 161/208/182
f 164/63/183 94/65/87 96/63/86
f 94/65/87 164/63/183 163/65/184
f 94/65/87 161/64/182 93/64/85
f 161/64/182 94/65/87 163/65/184
f 164/63/183 95/66/84 162/66/181
f 95/66/84 164/63/183 96/63/86
f 146/209/185 100/120/91 144/210/186
f 100/120/91 146/209/185 97/118/106
f 150/160/144 98/123/109 148/211/187
f 98/123/109 150/160/144 99/98/90
f 151/36/36 174/212/188 197/213/189
f 174/212/188 151/36/36 102/70/52
f 150/160/144 144/214/186 100/99/91
f 101/85/77 173/164/119 160/206/180
f 159/163/147 174/212/188 102/70/52
f 196/168/149 177/96/88 103/27/27
f 107/155/139 156/215/190 152/193/171
f 132/204/178 104/129/115 130/195/173
f 105/138/100 178/216/121 184/197/175
f 121/175/122 122/30/30 189/217/191
f 106/26/26 184/197/175 185/43/41
f 155/218/192 107/155/139 108/151/135
f 107/155/139 155/218/192 156/215/190
f 154/219/193 108/151/135 109/153/137
f 108/151/135 154/219/193 155/218/192
f 109/153/137 157/220/194 154/219/193
f 157/220/194 109/153/137 110/152/136
f 110/152/136 158/221/195 157/220/194
f 158/221/195 110/152/136 111/154/138
f 165/67/64 201/177/154 220/222/196
f 201/177/154 165/67/64 112/68/63
f 166/67/62 202/177/155 113/68/65
f 202/177/155 166/67/62 219/222/197
f 207/165/148 175/69/66 114/21/21
f 168/67/70 203/177/162 115/68/68
f 203/177/162 168/67/70 221/222/198
f 167/67/67 204/177/163 223/222/199
f 204/177/163 167/67/67 116/68/69
f 177/96/88 208/169/150 117/20/20
f 149/223/200 143/224/201 144/214/186
f 144/214/186 150/160/144 149/223/200
f 138/161/145 141/184/161 136/190/157
f 139/162/146 136/190/157 141/184/161
f 119/191/169 118/225/202 169/226/174
f 169/226/174 171/125/111 250/192/170 119/191/169
f 123/149/131 124/127/113 170/126/112
f 186/166/114 193/186/165 120/35/35
f 170/126/112 124/127/113 172/185/164
f 131/194/172 130/195/173 129/227/203
f 132/204/178 130/195/173 131/194/172
f 189/217/191 187/228/153 121/175/122
f 189/217/191 122/30/30 191/50/48
f 128/148/130 123/149/131 126/150/132
f 123/149/131 128/148/130 124/127/113
f 127/65/134 126/66/132 125/63/133
f 126/66/132 127/65/134 128/64/130
f 126/66/132 127/65/134 128/64/130
f 126/66/132 127/65/134 128/64/130
f 129/227/203 152/193/171 153/229/204
f 152/193/171 129/227/203 130/195/173
f 133/205/179 132/204/178 131/194/172
f 132/198/178 133/198/179 134/198/177
f 132/198/178 133/198/179 134/198/177
f 132/204/178 133/205/179 134/203/177
f 137/181/158 136/179/157 135/178/156
f 136/179/157 137/181/158 138/180/145
f 141/184/161 140/182/159 139/162/146
f 140/182/159 141/184/161 142/183/160
f 145/230/205 144/210/186 143/231/201
f 144/210/186 145/230/205 146/209/185
f 149/223/200 148/211/187 147/232/206
f 148/211/187 149/223/200 150/160/144
f 159/163/147 160/206/180 173/164/119
f 172/185/164 192/233/207 170/126/112
f 159/163/147 173/164/119 174/212/188
f 151/36/36 197/213/189 196/167/149
f 153/229/204 152/193/171 156/215/190
f 156/215/190 158/221/195 153/229/204
f 169/234/174 170/235/112 195/236/208
f 234/237/209 178/139/121 181/106/98
f 182/136/31 239/238/210 181/106/98
f 179/171/151 215/239/211 182/136/31
f 183/174/32 216/240/212 250/241/170 180/172/152
f 188/137/120 242/242/213 183/174/32
f 225/243/214 199/48/46 185/43/41
f 157/244/194 155/245/192 154/246/193
f 157/244/194 156/247/190 155/245/192
f 156/215/190 157/220/194 158/221/195
f 156/198/190 157/198/194 158/198/195
f 156/247/190 157/244/194 158/248/195
f 161/208/182 160/206/180 159/163/147
f 160/206/180 161/208/182 162/207/181
f 163/65/184 162/66/181 161/64/182
f 162/66/181 163/65/184 164/63/183
f 162/66/181 163/65/184 164/63/183
f 162/66/181 163/65/184 164/63/183
f 220/222/196 166/67/62 165/67/64
f 166/67/62 220/222/196 219/222/197
f 221/222/198 167/67/67 223/222/199
f 167/67/67 221/222/198 168/67/70
f 171/249/111 169/250/174 195/251/208
f 170/126/112 192/233/207 195/252/208
f 194/253/215 174/212/188 173/164/119
f 173/235/119 171/234/111 195/236/208
f 213/254/216 179/171/151 180/172/152
f 188/137/120 187/176/153 236/255/217
f 232/256/218 184/257/175 178/139/121
f 184/197/175 212/258/219 185/43/41
f 191/50/48 200/49/47 229/259/220
f 172/185/164 193/186/165 192/233/207
f 194/253/215 173/164/119 195/260/208
f 189/261/191 233/262/221 187/176/153
f 190/263/222 212/258/219 184/197/175
f 214/264/223 189/217/191 191/50/48
f 200/49/47 199/48/46 238/265/224
f 194/253/215 197/213/189 174/212/188
f 175/69/66 207/165/148 186/128/114
f 176/28/28 208/169/150 207/165/148
f 196/168/149 208/169/150 177/96/88
f 178/139/121 234/237/209 232/256/218
f 179/171/151 213/254/216 215/239/211
f 213/254/216 180/172/152 250/241/170 216/240/212
f 181/106/98 239/238/210 234/237/209
f 215/239/211 239/238/210 182/136/31
f 183/174/32 242/242/213 216/240/212
f 190/198/222 184/198/175 232/198/218
f 198/266/225 189/217/191 214/264/223
f 212/258/219 225/243/214 185/43/41
f 202/177/155 218/267/226 201/177/154
f 218/267/226 202/177/155 217/267/227
f 192/233/207 205/268/228 195/252/208
f 194/253/215 195/260/208 206/269/229
f 211/270/230 193/186/165 186/166/114
f 207/165/148 209/271/231 186/128/114
f 211/270/230 186/166/114 209/272/231
f 196/168/149 209/271/231 208/169/150
f 233/262/221 236/255/217 187/176/153
f 236/255/217 242/242/213 188/137/120
f 198/198/225 233/198/221 189/198/191
f 190/263/222 232/273/218 212/258/219
f 214/264/223 191/50/48 229/259/220
f 204/177/163 222/267/232 224/267/233
f 222/267/232 204/177/163 203/177/162
f 193/186/165 205/268/228 192/233/207
f 205/268/228 193/186/165 211/270/230
f 197/213/189 206/269/229 210/274/234
f 206/269/229 197/213/189 194/253/215
f 205/275/228 206/276/229 195/277/208
f 209/272/231 196/167/149 210/274/234
f 196/167/149 197/213/189 210/274/234
f 198/266/225 214/264/223 233/278/221
f 199/48/46 225/243/214 238/265/224
f 238/265/224 229/259/220 200/49/47
f 201/177/154 218/267/226 220/222/196
f 217/267/227 202/177/155 219/222/197
f 222/267/232 203/177/162 221/222/198
f 204/177/163 224/267/233 223/222/199
f 211/279/230 206/276/229 205/275/228
f 206/276/229 211/279/230 210/280/234
f 207/165/148 208/169/150 209/271/231
f 209/272/231 210/274/234 211/270/230
f 209/198/231 210/198/234 211/198/230
f 209/272/231 210/274/234 211/270/230
f 212/258/219 232/273/218 225/243/214
f 231/281/235 213/254/216 216/240/212
f 215/239/211 213/254/216 231/281/235
f 232/273/218 227/282/236 225/243/214
f 233/278/221 214/264/223 229/259/220
f 215/283/211 231/284/235 239/285/210
f 232/198/218 245/198/237 228/198/238
f 227/282/236 232/273/218 228/286/238
f 230/287/239 233/278/221 229/259/220
f 231/284/235 216/288/212 242/289/213
f 237/290/240 232/291/218 234/292/209
f 236/293/217 233/294/221 237/295/240
f 219/222/197 218/267/226 217/267/227
f 218/267/226 219/222/197 220/222/196
f 218/267/226 219/222/197 220/222/196
f 218/267/226 219/222/197 220/222/196
f 223/222/199 222/267/232 221/222/198
f 222/267/232 223/222/199 224/267/233
f 222/267/232 223/222/199 224/267/233
f 222/267/232 223/222/199 224/267/233
f 226/198/241 246/198/242 233/198/221
f 226/296/241 233/278/221 230/287/239
f 239/238/210 240/297/243 234/237/209
f 245/298/237 238/265/224 225/243/214
f 225/243/214 227/282/236 245/298/237
f 226/296/241 230/287/239 246/299/242
f 227/282/236 228/286/238 245/298/237
f 240/300/243 242/242/213 236/255/217
f 238/265/224 246/299/242 229/259/220
f 229/259/220 246/299/242 230/287/239
f 234/292/209 235/301/244 237/290/240
f 237/295/240 235/302/244 236/293/217
f 231/284/235 241/303/245 239/285/210
f 241/303/245 231/284/235 242/289/213
f 245/304/237 232/291/218 237/290/240
f 233/294/221 246/305/242 237/295/240
f 240/306/243 235/301/244 234/292/209
f 235/302/244 240/307/243 236/293/217
f 237/290/240 249/308/246 245/309/237
f 243/198/247 245/198/237 249/198/246
f 247/198/248 249/198/246 246/198/242
f 249/308/246 237/290/240 246/304/242
f 244/310/249 249/311/246 238/265/224
f 249/311/246 248/312/250 238/265/224
f 238/265/224 248/312/250 246/299/242
f 245/298/237 244/310/249 238/265/224
f 241/303/245 240/313/243 239/285/210
f 240/313/243 241/303/245 242/289/213
f 240/313/243 241/303/245 242/289/213
f 243/314/247 249/311/246 244/310/249
f 243/198/247 244/198/249 245/198/237
f 243/198/247 244/198/249 245/198/237
f 243/314/247 244/310/249 245/298/237
f 247/315/248 246/299/242 248/312/250
f 247/198/248 248/198/250 249/198/246
f 247/198/248 248/198/250 249/198/246
f 247/315/248 248/312/250 249/311/246
f 254/316/251 251/317/252 252/318/253
f 253/319/254 254/316/251 258/320/255
f 254/316/251 253/319/254 251/317/252
f 251/317/252 255/321/256 252/318/253
f 257/322/257 258/320/255 259/323/258
f 258/320/255 257/322/257 253/319/254
f 253/319/254 255/321/256 251/317/252
f 255/321/256 253/319/254 260/324/259
f 256/325/260 254/326/251 252/327/253
f 255/328/256 256/329/260 252/330/253
f 262/331/261 253/332/254 257/333/257
f 253/332/254 262/331/261 260/334/259
f 258/335/255 256/325/260 261/336/262
f 256/325/260 258/335/255 254/326/251
f 259/323/258 263/337/263 257/322/257
f 261/338/262 255/328/256 260/339/259
f 255/328/256 261/338/262 256/329/260
f 257/333/257 263/340/263 262/331/261
f 264/341/264 258/335/255 261/336/262
f 258/335/255 264/341/264 259/342/258
f 264/341/264 263/343/263 259/342/258
f 262/344/261 261/338/262 260/339/259
f 261/338/262 262/344/261 264/345/264
f 262/344/261 263/346/263 264/345/264
f 268/347/265 265/348/266 266/349/267
f 267/350/268 268/347/265 272/351/269
f 268/347/265 267/350/268 265/348/266
f 265/348/266 269/352/270 266/349/267
f 271/353/271 272/351/269 273/354/272
f 272/351/269 271/353/271 267/350/268
f 267/350/268 269/352/270 265/348/266
f 269/352/270 267/350/268 274/355/273
f 270/356/274 268/357/265 266/358/267
f 269/359/270 270/360/274 266/361/267
f 276/362/275 267/363/268 271/364/271
f 267/363/268 276/362/275 274/365/273
f 272/366/269 270/356/274 275/367/276
f 270/356/274 272/366/269 268/357/265
f 273/354/272 277/368/277 271/353/271
f 275/369/276 269/359/270 274/370/273
f 269/359/270 275/369/276 270/360/274
f 271/371/271 277/372/277 276/373/275
f 278/374/278 272/366/269 275/367/276
f 272/366/269 278/374/278 273/375/272
f 278/374/278 277/376/277 273/375/272
f 276/377/275 275/369/276 274/370/273
f 275/369/276 276/377/275 278/378/278
f 276/377/275 277/379/277 278/378/278
f 149/380/200 29/381/108 30/382/93
f 147/383/206 29/381/108 149/380/200
f 149/380/200 27/384/92 143/385/201
f 30/382/93 27/384/92 149/380/200
f 143/386/201 27/387/92 145/230/205
f 27/387/92 28/209/107 145/230/205
f 37/58/55 75/145/127 82/189/168
f 37/58/55 82/189/168 24/79/76
f 81/188/167 24/79/76 82/189/168
f 24/79/76 81/188/167 23/74/71
f 26/77/74 23/74/71 81/188/167
f 81/188/167 86/187/166 26/77/74
f 85/388/176 26/77/74 86/187/166
f 26/77/74 85/388/176 25/93/83
f 69/130/116 131/194/172 129/227/203
f 69/130/116 129/227/203 52/156/140
f 129/227/203 153/229/204 52/156/140
f 52/156/140 153/229/204 111/154/138
f 153/229/204 158/221/195 111/154/138
f 70/83/53 169/389/174 53/80/43
f 169/389/174 118/225/202 53/80/43
